HIERARCHY
ROOT Hips
{
	OFFSET 0.000000 0.000000 0.000000
	CHANNELS 6 Xposition Yposition Zposition Zrotation Yrotation Xrotation 
	JOINT LHipJoint
	{
		OFFSET 0.000000 0.000000 0.000000
		CHANNELS 3 Zrotation Yrotation Xrotation
		JOINT LeftUpLeg
		{
			OFFSET 1.363060 -1.794630 0.839290
			CHANNELS 3 Zrotation Yrotation Xrotation
			JOINT LeftLeg
			{
				OFFSET 2.448110 -6.726130 0.000000
				CHANNELS 3 Zrotation Yrotation Xrotation
				JOINT LeftFoot
				{
					OFFSET 2.562200 -7.039590 0.000000
					CHANNELS 3 Zrotation Yrotation Xrotation
					JOINT LeftToeBase
					{
						OFFSET 0.157640 -0.433110 2.322550
						CHANNELS 3 Zrotation Yrotation Xrotation
						End Site
						{
							OFFSET 0.000000 0.000000 0.000000
						}
					}
				}
			}
		}
	}
	JOINT RHipJoint
	{
		OFFSET 0.000000 0.000000 0.000000
		CHANNELS 3 Zrotation Yrotation Xrotation
		JOINT RightUpLeg
		{
			OFFSET -1.305520 -1.794630 0.839290
			CHANNELS 3 Zrotation Yrotation Xrotation
			JOINT RightLeg
			{
				OFFSET -2.542530 -6.985550 0.000000
				CHANNELS 3 Zrotation Yrotation Xrotation
				JOINT RightFoot
				{
					OFFSET -2.568260 -7.056230 0.000000
					CHANNELS 3 Zrotation Yrotation Xrotation
					JOINT RightToeBase
					{
						OFFSET -0.164730 -0.452590 2.363150
						CHANNELS 3 Zrotation Yrotation Xrotation
						End Site
						{
							OFFSET 0.000000 0.000000 0.000000
						}
					}
				}
			}
		}
	}
}
MOTION
Frames: 22
Frame Time: 0.008333
-8.398542 16.178383 1.367668 -175.042225 76.949045 -157.326771 -11.418895 2.936377 -0.743388 -6.465342 -4.892542 3.354929 -0.598984 2.059346 31.321165 0.849516 4.622496 0.680923 0.576100 -0.000000 -77.747800 8.677973 1.506814 1.486653 -3.256135 0.583999 -45.508409 1.634636 -1.584060 20.995289 -0.043632 0.385935 10.546726 -0.320600 0.000001 -60.468200
-8.179063 16.152458 1.344369 -172.521530 76.508766 -155.108095 -11.756574 2.978005 -0.913713 -5.395169 -3.740139 2.109061 -0.335124 2.289141 34.571722 1.061801 6.075764 1.734990 0.832000 0.000000 -75.120900 8.570192 1.446372 1.189885 -2.198980 0.397233 -45.774533 1.551235 -1.858069 24.020088 -0.132089 -0.041249 10.548645 -0.440100 -0.000000 -59.975800
-7.965714 16.135540 1.320996 -170.463355 75.976145 -153.339217 -12.093989 2.975774 -1.096334 -4.363283 -2.564306 0.705135 -0.085855 2.502404 37.919973 1.312273 7.798901 2.559938 1.155400 -0.000000 -70.546600 8.458592 1.383567 0.902326 -1.206245 0.158150 -45.811865 1.482286 -2.069513 26.628659 -0.231462 -0.566269 10.110981 -0.593300 0.000000 -59.913400
-7.758188 16.127955 1.297780 -168.888643 75.336984 -152.025180 -12.420182 2.930456 -1.279371 -3.386933 -1.414170 -0.862010 0.138304 2.700888 41.325034 1.587444 9.715149 3.022454 1.513600 0.000000 -64.051600 8.347509 1.314682 0.632833 -0.293245 -0.126998 -45.637396 1.433968 -2.223962 28.812396 -0.343856 -1.194473 9.250634 -0.769800 -0.000000 -60.267199
-7.555933 16.129690 1.275592 -167.871646 74.582080 -151.230433 -12.715861 2.847012 -1.451334 -2.519340 -0.350140 -2.572030 0.333109 2.886202 44.711814 1.874205 11.745226 3.064321 1.861000 0.000001 -56.312100 8.248215 1.242289 0.385156 0.503165 -0.471404 -45.268635 1.406996 -2.330048 30.585067 -0.470325 -1.904029 8.026116 -0.946100 -0.000000 -60.964400
-7.358256 16.140501 1.254380 -167.371042 73.703386 -150.901649 -12.974140 2.733386 -1.599500 -1.778665 0.584120 -4.422236 0.499352 3.060757 48.014794 2.157992 13.779666 2.676586 2.139500 0.000000 -48.038501 8.164075 1.167132 0.162344 1.175017 -0.870773 -44.722243 1.401069 -2.392843 31.954010 -0.612727 -2.680893 6.534103 -1.103300 0.000000 -61.830599
-7.164444 16.159955 1.234233 -167.360513 72.699915 -151.004015 -13.186785 2.597121 -1.711829 -1.201023 1.341687 -6.394090 0.643198 3.222743 51.155571 2.429798 15.734693 1.968539 2.318500 -0.000000 -40.445200 8.101043 1.092722 -0.034812 1.702642 -1.325645 -44.014377 1.411943 -2.417839 32.934957 -0.770536 -3.499415 4.895507 -1.224900 -0.000001 -62.680200
-6.973896 16.187500 1.215238 -167.807517 71.577826 -151.501753 -13.346509 2.445012 -1.781416 -0.828300 1.889232 -8.460802 0.770147 3.367925 54.073660 2.682108 17.537635 1.061451 2.388000 -0.000000 -34.288500 8.066493 1.023662 -0.207408 2.061004 -1.838707 -43.159891 1.432452 -2.410957 33.549410 -0.940086 -4.330228 3.249262 -1.303200 -0.000001 -63.423600
-6.786022 16.222388 1.196737 -168.608445 70.347024 -152.287721 -13.456521 2.282737 -1.805271 -0.666875 2.226180 -10.612740 0.881880 3.493288 56.735941 2.905409 19.108792 0.022404 2.339800 0.000000 -29.605100 8.060404 0.960475 -0.355352 2.252578 -2.396869 -42.176876 1.455831 -2.376241 33.819837 -1.115482 -5.153408 1.728916 -1.344800 -0.000001 -63.942900
-6.600513 16.263836 1.177920 -169.660108 69.025120 -153.261865 -13.520649 2.114026 -1.787089 -0.715951 2.371800 -12.828379 0.977581 3.596121 59.111357 3.091853 20.387322 -1.102306 2.176900 -0.000000 -26.148600 8.082252 0.902894 -0.480479 2.284445 -2.985653 -41.081055 1.475132 -2.318433 33.774998 -1.288337 -5.948762 0.453909 -1.365400 0.000001 -64.247800
-6.417119 16.311000 1.157667 -170.842297 67.635903 -154.307570 -13.547036 1.941593 -1.731136 -0.952254 2.358940 -15.092225 1.054896 3.675414 61.172662 3.235710 21.331441 -2.265004 1.916300 0.000000 -23.674100 8.126840 0.848580 -0.583907 2.182741 -3.582240 -39.893578 1.485549 -2.241316 33.449629 -1.449845 -6.699989 -0.492948 -1.385500 0.000001 -64.319600
-6.236051 16.363086 1.135201 -172.069840 66.210954 -155.355038 -13.539576 1.766302 -1.650056 -1.355653 2.229615 -17.362537 1.110635 3.731020 62.889374 3.334336 21.926086 -3.422189 1.586800 0.000000 -21.914600 8.191325 0.795826 -0.672334 1.969158 -4.171066 -38.623325 1.483955 -2.150586 32.884331 -1.590903 -7.385657 -1.062341 -1.423600 -0.000000 -64.290400
-6.057539 16.419357 1.109517 -173.258006 64.782719 -156.334153 -13.504788 1.589176 -1.553871 -1.891477 2.026794 -19.607358 1.142354 3.764412 64.240271 3.387962 22.179540 -4.518105 1.228200 -0.000000 -20.782501 8.269289 0.741776 -0.751011 1.677127 -4.734476 -37.285198 1.470498 -2.050759 32.121673 -1.704910 -7.988545 -1.249831 -1.492800 0.000000 -64.245100
-5.881850 16.479095 1.080038 -174.353033 63.382545 -157.205292 -13.447446 1.410654 -1.453300 -2.524335 1.791256 -21.796733 1.148424 3.777826 65.215231 3.399669 22.122099 -5.511844 0.877301 -0.000000 -20.168901 8.354803 0.683728 -0.825963 1.340017 -5.260635 -35.893990 1.447588 -1.946595 31.206340 -1.788003 -8.492954 -1.088170 -1.596900 -0.000001 -64.265100
-5.709314 16.541662 1.046298 -175.319806 62.037128 -157.948665 -13.371711 1.231403 -1.357695 -3.223017 1.558920 -23.904601 1.128677 3.773709 65.813951 3.375871 21.806904 -6.371248 0.564600 0.000000 -20.022900 8.442221 0.619736 -0.902536 0.986604 -5.743805 -34.464237 1.419149 -1.842239 30.181237 -1.839165 -8.887156 -0.637073 -1.730900 -0.000000 -64.421300
-5.540050 16.606411 1.008166 -176.143847 60.766885 -158.561497 -13.280737 1.052208 -1.273966 -3.961234 1.358697 -25.914995 1.084027 3.754457 66.048960 3.325778 21.303345 -7.088029 0.305700 -0.000000 -20.252100 8.526996 0.548425 -0.984324 0.641336 -6.183338 -33.010977 1.389451 -1.740976 29.085701 -1.860187 -9.166616 0.029796 -1.883500 0.000001 -64.767900
-5.374184 16.672639 0.965557 -176.817686 59.583767 -159.045185 -13.177361 0.873563 -1.207027 -4.719273 1.212445 -27.820046 1.016108 3.722292 65.942242 3.260475 20.688900 -7.678504 0.101000 -0.000000 -20.723900 8.605170 0.469096 -1.073618 0.323511 -6.582622 -31.549398 1.363054 -1.645165 27.954622 -1.854653 -9.332247 0.830480 -2.039300 -0.000000 -65.271100
-5.211435 16.739619 0.918826 -177.352841 58.493607 -159.416441 -13.062848 0.696800 -1.159395 -5.485094 1.134510 -29.617856 0.926464 3.679107 65.521553 3.191560 20.039882 -8.180118 -0.061100 -0.000000 -21.268800 8.674928 0.381862 -1.170853 0.045902 -6.947435 -30.090488 1.342822 -1.555851 26.812758 -1.827526 -9.393964 1.697210 -2.185400 -0.000000 -65.953899
-5.051489 16.806581 0.868254 -177.760897 57.495119 -159.690587 -12.938070 0.523682 -1.131231 -6.253206 1.132315 -31.309927 0.816382 3.626264 64.815800 3.129384 19.419942 -8.642616 -0.198200 0.000000 -21.711300 8.735414 0.286932 -1.275019 -0.184062 -7.285101 -28.641546 1.330750 -1.473010 25.675450 -1.783856 -9.365857 2.576765 -2.312200 0.000000 -66.784500
-4.893923 16.872667 0.814073 -178.053482 56.581986 -159.880792 -12.803426 0.356196 -1.121441 -7.023039 1.207766 -32.899102 0.686632 3.564646 63.851658 3.081763 18.872536 -9.117098 -0.328600 -0.000001 -21.904600 8.786677 0.184604 -1.384843 -0.363097 -7.603294 -27.205833 1.328015 -1.396118 24.551134 -1.727868 -9.261934 3.432386 -2.414000 0.000000 -67.726500
-4.738096 16.936978 0.756746 -178.250562 55.745757 -160.007302 -12.658443 0.197354 -1.127309 -7.798054 1.358021 -34.386325 0.537447 3.494354 62.649932 3.053122 18.417208 -9.642610 -0.466600 -0.000000 -21.764500 8.830188 0.075239 -1.498257 -0.492386 -7.909783 -25.782288 1.334598 -1.324163 23.439898 -1.662644 -9.094311 4.247053 -2.489100 -0.000000 -68.723200
-4.583320 16.998551 0.696602 -178.369880 54.976222 -160.085563 -12.502789 0.050152 -1.145552 -8.583877 1.577190 -35.773058 0.368873 3.414986 61.225523 3.044352 18.050013 -10.239002 -0.619999 -0.000000 -21.278300 8.867740 -0.040681 -1.613487 -0.576411 -8.211879 -24.369199 1.349995 -1.256259 22.338102 -1.589787 -8.870139 5.020549 -2.537799 0.000000 -69.729800
